<?xml version="1.0" standalone="no"?>
<!DOCTYPE svg PUBLIC "-//W3C//DTD SVG 20010904//EN"
        "http://www.w3.org/TR/2001/REC-SVG-20010904/DTD/svg10.dtd">
<svg version="1.0" xmlns="http://www.w3.org/2000/svg"
     width="50.000000pt" height="50.000000pt" viewBox="0 0 50.000000 50.000000"
     preserveAspectRatio="xMidYMid meet">

    <g id="svgg" transform="translate(0.000000,50.000000) scale(0.100000,-0.100000)"
       fill="#000000" stroke="none">
        <path d="M145 460 c-4 -7 34 -10 114 -10 l121 0 0 -55 c0 -32 4 -55 10 -55 7
0 10 24 8 63 l-3 62 -122 3 c-76 2 -124 -1 -128 -8z"/>
        <path d="M69 348 c-54 -81 -54 -82 -57 -169 -4 -83 -3 -89 22 -113 16 -17 36
-26 56 -26 l30 0 0 86 c0 65 6 107 26 170 49 155 8 182 -77 52z"/>
        <path d="M374 305 c-10 -25 9 -37 57 -33 36 2 44 7 44 23 0 17 -8 20 -48 23
-36 2 -49 -1 -53 -13z"/>
        <path d="M147 220 c-5 -19 -7 -69 -5 -110 l3 -75 125 -2 c124 -3 125 -3 101
16 -17 13 -22 25 -18 40 5 20 2 21 -93 21 l-99 0 -3 73 c-3 62 -4 67 -11 37z
m163 -150 c0 -5 -18 -10 -40 -10 -22 0 -40 5 -40 10 0 6 18 10 40 10 22 0 40
-4 40 -10z"/>
        <path d="M354 235 c-11 -27 10 -36 72 -33 51 3 59 6 59 23 0 18 -8 20 -63 23
-50 2 -63 0 -68 -13z"/>
        <path d="M354 165 c-11 -27 10 -36 72 -33 51 3 59 6 59 23 0 18 -8 20 -63 23
-50 2 -63 0 -68 -13z"/>
        <path d="M374 95 c-10 -25 9 -37 57 -33 36 2 44 7 44 23 0 17 -8 20 -48 23
-36 2 -49 -1 -53 -13z"/>
    </g>
</svg>
